<svg xmlns="http://www.w3.org/2000/svg" viewBox="51.3 213.53 150 172.93">
  <defs>
    <style>
      .cls-3 {
        fill: #3acc90;
      }
    </style>
  </defs>
  <path class="cls-3" d="M200.76,281.98c-1.71-2.45-4.65-3.91-7.86-3.91h-33.78c-3.38,0-6.58,1.64-8.55,4.39l-7.8,10.88c-1.59,2.21-4.16,3.53-6.88,3.53h-4.95c-.24,0-.43-.19-.43-.43v-11.5c0-4.71-1.92-9.32-5.26-12.65l-55.98-55.69c-3.58-3.57-9.24-4.07-13.44-1.18-2.82,1.93-4.5,5.27-4.5,8.93v59.85c0,5.4,2.2,10.67,6.02,14.47l40.21,39.9c2.55,2.54,6.7,2.52,9.23-.03,2.54-2.55,2.52-6.7-.03-9.24l-40.21-39.9c-1.38-1.36-2.16-3.26-2.16-5.2v-53.01c0-.25.17-.35.26-.4.1-.04.29-.08.47.09l50.92,50.66c.9.89,1.41,2.13,1.41,3.39v90.6c0,4.53,2.68,8.62,6.66,10.18,1.26.49,2.57.73,3.86.73,3.32,0,6.53-1.57,8.55-4.38l64.19-89.37c2.29-3.18,2.31-7.48.05-10.72ZM185.27,291.81l-53.98,75.16c-.15.21-.35.2-.48.16-.14-.04-.3-.15-.3-.41v-56.36c0-.24.19-.43.43-.43h4.95c6.92,0,13.46-3.36,17.49-8.98l6.41-8.94c.39-.55,1.03-.88,1.71-.88h23.42c.23,0,.34.15.38.23.04.09.1.26-.03.45Z"/>
</svg>