<svg width="93" height="32" viewBox="0 0 93 32" fill="none" xmlns="http://www.w3.org/2000/svg">
<path d="M27.8059 12.5558C27.6382 12.3292 27.4178 12.1458 27.1631 12.0209C26.9085 11.896 26.6271 11.8334 26.3427 11.8383H20.0561C19.7452 11.8387 19.4388 11.9118 19.1622 12.0517C18.8856 12.1917 18.6467 12.3943 18.4651 12.6431L17.0142 14.6386C16.8683 14.8388 16.6762 15.002 16.4538 15.1146C16.2314 15.2273 15.985 15.2862 15.7349 15.2865H14.8133C14.7923 15.2862 14.7722 15.2778 14.7573 15.2632C14.7425 15.2485 14.734 15.2287 14.7337 15.208V13.0986C14.7318 12.2277 14.3803 11.393 13.756 10.777L3.33885 0.560729C3.01354 0.242353 2.58566 0.0460184 2.12914 0.00564723C1.67262 -0.0347239 1.21614 0.0834042 0.83856 0.339622C0.573716 0.525465 0.358888 0.772251 0.212734 1.05855C0.0665803 1.34484 -0.0064808 1.66199 -0.000103945 1.98245V12.9637C0.0023705 13.9597 0.405626 14.914 1.1211 15.617L8.60292 22.9379C8.71509 23.0534 8.84957 23.1457 8.99846 23.2092C9.14734 23.2726 9.30761 23.3061 9.46982 23.3076C9.63202 23.309 9.79289 23.2785 9.94292 23.2177C10.093 23.1569 10.2291 23.0671 10.3434 22.9536C10.4577 22.8401 10.5478 22.7052 10.6084 22.5568C10.669 22.4084 10.6988 22.2496 10.6962 22.0897C10.6935 21.9297 10.6584 21.7719 10.593 21.6256C10.5275 21.4793 10.433 21.3473 10.315 21.2376L2.83207 13.9167C2.57508 13.6638 2.43032 13.3207 2.42955 12.9626V3.23391C2.42964 3.21845 2.43436 3.20337 2.44311 3.19054C2.45187 3.17772 2.46427 3.16772 2.47876 3.16182C2.49325 3.15592 2.50918 3.15436 2.52456 3.15735C2.53995 3.16035 2.55409 3.16775 2.56522 3.17864L12.0394 12.4729C12.2068 12.6381 12.3011 12.8618 12.3018 13.0953V29.7214C12.2955 30.1192 12.4103 30.5098 12.6313 30.8426C12.8524 31.1755 13.1695 31.4353 13.5418 31.5887C13.9475 31.7454 14.3945 31.7647 14.8124 31.6434C15.2304 31.5221 15.5955 31.2671 15.8504 30.9187L27.7958 14.5225C28.0032 14.236 28.1154 13.8931 28.117 13.5411C28.1186 13.1891 28.0095 12.8452 27.8047 12.5569M24.9221 14.36L14.8772 28.1483C14.8671 28.1612 14.8532 28.1708 14.8374 28.1757C14.8215 28.1806 14.8046 28.1805 14.7888 28.1756C14.773 28.1706 14.7591 28.161 14.749 28.148C14.739 28.135 14.7332 28.1193 14.7326 28.1029V17.7618C14.734 17.7419 14.743 17.7233 14.7578 17.7098C14.7726 17.6962 14.792 17.6887 14.8122 17.6888H15.7338C16.3693 17.6875 16.9954 17.5376 17.5607 17.2512C18.126 16.9648 18.6142 16.5502 18.9853 16.0415L20.1816 14.3954C20.2177 14.3456 20.2654 14.305 20.3205 14.2769C20.3757 14.2489 20.4369 14.2341 20.4989 14.234H24.8571C24.8719 14.2338 24.8864 14.2377 24.8991 14.2453C24.9117 14.2528 24.922 14.2637 24.9287 14.2766C24.9355 14.2896 24.9385 14.3042 24.9373 14.3187C24.9361 14.3332 24.9309 14.3472 24.9221 14.3589" fill="#3ACC90"/>
<path fill-rule="evenodd" clip-rule="evenodd" d="M50.0085 13.6158C50.0085 13.1603 49.825 12.7234 49.4983 12.4013C49.1717 12.0793 48.7286 11.8983 48.2667 11.8983C47.8047 11.8983 47.3617 12.0793 47.0351 12.4013C46.7084 12.7234 46.5249 13.1603 46.5249 13.6158V27.6107C46.5249 28.0662 46.7084 28.5031 47.0351 28.8252C47.3617 29.1472 47.8047 29.3282 48.2667 29.3282C48.7286 29.3282 49.1717 29.1472 49.4983 28.8252C49.825 28.5031 50.0085 28.0662 50.0085 27.6107V13.6158Z" fill="#125E5C"/>
<path fill-rule="evenodd" clip-rule="evenodd" d="M71.3083 19.4585C71.248 18.8427 71.3557 18.2222 71.62 17.6611C71.8843 17.1 72.2957 16.6187 72.8118 16.2669C73.2926 15.9813 73.8147 15.7699 74.3602 15.64C74.5172 15.598 74.6899 15.5571 74.8726 15.514C75.5657 15.4131 76.2259 15.1562 76.8022 14.7633C76.9442 14.6156 77.053 14.44 77.1216 14.2479C77.1902 14.0559 77.217 13.8518 77.2002 13.649C77.1997 13.1938 77.016 12.7574 76.6896 12.4356C76.3632 12.1137 75.9206 11.9326 75.459 11.9321C73.435 11.9344 71.4946 12.7282 70.0634 14.1394C68.6322 15.5506 67.8271 17.4639 67.8247 19.4596V27.5809C67.8247 28.0364 68.0082 28.4732 68.3349 28.7953C68.6615 29.1174 69.1045 29.2983 69.5665 29.2983C70.0285 29.2983 70.4715 29.1174 70.7981 28.7953C71.1248 28.4732 71.3083 28.0364 71.3083 27.5809V19.4585Z" fill="#125E5C"/>
<path fill-rule="evenodd" clip-rule="evenodd" d="M92.3696 18.5697C92.5699 17.6808 92.5087 16.754 92.1934 15.8982C91.878 15.0424 91.3214 14.2932 90.5891 13.7385C89.2393 12.556 87.4961 11.9033 85.6905 11.9044C85.5123 11.9044 85.3329 11.9099 85.1524 11.9232C82.7294 12.1309 80.486 13.2683 78.905 15.0905C77.6691 16.443 76.9059 18.1507 76.7276 19.9626C76.6496 21.3788 76.917 22.7927 77.5074 24.0859C78.0978 25.3792 78.994 26.514 80.1209 27.3954C81.2477 28.2767 82.5724 28.8789 83.9839 29.1514C85.3955 29.4239 86.8527 29.3589 88.2334 28.9617C89.0267 28.7527 89.744 28.3273 90.3032 27.7345C90.4577 27.534 90.558 27.298 90.5949 27.0488C90.6318 26.7996 90.6039 26.5452 90.514 26.3095C90.4419 26.0877 90.3125 25.8881 90.1385 25.7306C89.9646 25.573 89.752 25.4627 89.5217 25.4107C88.877 25.3634 88.2317 25.4943 87.6583 25.7888C87.3053 25.9361 86.9413 26.0562 86.5696 26.1481C85.9103 26.2896 84.1029 26.44 83.6309 25.4605C83.5298 25.2668 83.474 25.0533 83.4676 24.8356C83.4612 24.6178 83.5044 24.4015 83.5939 24.2024C84.1545 22.9498 86.4507 22.2666 87.5551 21.9382L87.7872 21.8686C89.0038 21.5946 90.1519 21.0817 91.1631 20.3606C91.7318 19.8907 92.1507 19.2687 92.3696 18.5697ZM88.8411 18.2446C88.06 18.9863 87.0607 19.465 85.9865 19.6122C85.7455 19.6763 85.5257 19.7338 85.3441 19.7902C83.9058 20.1595 82.6185 20.9585 81.6587 22.0775L81.6273 22.1118C81.5452 22.2017 81.4459 22.2747 81.335 22.3265C81.2242 22.3783 81.104 22.4079 80.9815 22.4136C80.9224 22.4136 80.8635 22.4058 80.8065 22.3904C80.6671 22.3474 80.5424 22.2672 80.4462 22.1588C80.3501 22.0503 80.2862 21.9177 80.2617 21.7757C80.1158 20.8938 80.1784 19.9906 80.4446 19.1365C80.7108 18.2824 81.1735 17.5005 81.7966 16.8517C82.3578 16.1994 83.0756 15.6959 83.8845 15.387C84.6935 15.0781 85.5679 14.9735 86.4283 15.0828C87.4508 15.2343 89.0071 15.9296 89.1192 17.222C89.1451 17.5829 89.0471 17.9419 88.8411 18.2413" fill="#125E5C"/>
<path fill-rule="evenodd" clip-rule="evenodd" d="M35.3204 21.8122C35.3228 23.8079 36.1279 25.7213 37.5591 27.1324C38.9903 28.5436 40.9307 29.3375 42.9547 29.3398C43.4163 29.3392 43.8589 29.1581 44.1853 28.8363C44.5117 28.5144 44.6954 28.0781 44.6959 27.6229C44.7127 27.4198 44.6858 27.2154 44.617 27.0232C44.5483 26.831 44.4391 26.6552 44.2968 26.5074C43.7201 26.1136 43.059 25.8564 42.365 25.7557C42.1833 25.7125 42.0118 25.6727 41.8559 25.6307C41.3092 25.5008 40.7856 25.2899 40.3031 25.005C39.7871 24.6531 39.3757 24.1717 39.1113 23.6107C38.847 23.0496 38.7394 22.4291 38.7995 21.8133V13.6047C38.7995 13.1492 38.616 12.7124 38.2894 12.3903C37.9627 12.0682 37.5197 11.8873 37.0577 11.8873C36.5958 11.8873 36.1527 12.0682 35.8261 12.3903C35.4994 12.7124 35.3159 13.1492 35.3159 13.6047L35.3204 21.8122Z" fill="#125E5C"/>
<path d="M65.719 12.7524C65.6038 12.5457 65.4455 12.3655 65.2546 12.2235C65.0637 12.0816 64.8444 11.9811 64.6112 11.9287C64.186 11.8445 63.7442 11.9188 63.3713 12.1374C62.9985 12.3559 62.7212 12.7031 62.593 13.1117L59.5658 22.1527C59.5204 22.292 59.4313 22.4134 59.3114 22.4996C59.1915 22.5858 59.047 22.6322 58.8987 22.6322C58.7503 22.6322 58.6058 22.5858 58.4859 22.4996C58.366 22.4134 58.277 22.292 58.2315 22.1527L55.1718 13.0376C55.0969 12.8146 54.9758 12.6095 54.8161 12.4351C54.6565 12.2608 54.4619 12.1211 54.2445 12.0249C54.0271 11.9282 53.7913 11.8781 53.5527 11.8781C53.3142 11.8781 53.0784 11.9282 52.861 12.0249C52.4709 12.2128 52.1642 12.5352 51.9989 12.931C51.8336 13.3269 51.8212 13.7687 51.964 14.173L56.4275 27.4692C56.5847 27.9987 56.9095 28.4647 57.3546 28.7991C57.7996 29.1335 58.3415 29.3187 58.9009 29.3276C59.4606 29.3186 60.0027 29.133 60.4478 28.7982C60.8929 28.4634 61.2175 27.9969 61.3743 27.467L65.8457 14.1144C65.9205 13.8902 65.9476 13.6533 65.9252 13.4183C65.9028 13.1834 65.8315 12.9555 65.7156 12.749" fill="#125E5C"/>
</svg>
