<?xml version="1.0" standalone="no"?>
<!DOCTYPE svg PUBLIC "-//W3C//DTD SVG 20010904//EN"
 "http://www.w3.org/TR/2001/REC-SVG-20010904/DTD/svg10.dtd">
<svg version="1.0" xmlns="http://www.w3.org/2000/svg"
 width="758.000000pt" height="124.000000pt" viewBox="0 0 758.000000 124.000000"
 preserveAspectRatio="xMidYMid meet">

<g transform="translate(0.000000,124.000000) scale(0.100000,-0.100000)"
fill="#000000" stroke="none">
<path d="M1376 748 c-13 -18 -16 -57 -16 -215 0 -170 2 -199 21 -248 53 -142
258 -239 323 -152 19 26 19 30 6 54 -11 20 -31 32 -79 46 -135 39 -141 53
-141 304 0 215 -5 233 -65 233 -24 0 -39 -7 -49 -22z"/>
<path d="M1810 750 c-19 -19 -20 -33 -20 -315 0 -282 1 -296 20 -315 11 -11
31 -20 45 -20 14 0 34 9 45 20 19 19 20 33 20 315 0 282 -1 296 -20 315 -11
11 -31 20 -45 20 -14 0 -34 -9 -45 -20z"/>
<path d="M2010 751 c-5 -11 -10 -30 -10 -43 0 -13 41 -146 91 -295 98 -295
108 -313 175 -313 64 0 75 22 174 321 49 152 90 285 90 296 0 41 -61 68 -99
44 -8 -5 -44 -96 -80 -203 -89 -262 -88 -262 -171 -11 -35 103 -69 196 -78
206 -21 24 -78 23 -92 -2z"/>
<path d="M2772 739 c-65 -32 -99 -66 -135 -133 -20 -38 -22 -57 -25 -253 -3
-203 -3 -212 17 -232 21 -21 56 -27 77 -13 29 19 34 56 34 232 0 234 12 264
115 291 97 25 122 48 103 99 -13 33 -25 40 -79 40 -31 0 -65 -10 -107 -31z"/>
<path d="M3173 749 c-71 -27 -155 -106 -190 -177 -24 -48 -28 -70 -28 -137 0
-71 4 -89 33 -147 18 -36 49 -81 69 -99 111 -97 303 -118 393 -43 35 30 39 63
10 89 -19 18 -23 18 -74 2 -97 -31 -176 -19 -176 28 0 56 32 80 164 125 48 16
100 38 116 50 114 81 57 262 -99 315 -62 21 -155 18 -218 -6z m229 -138 c15
-17 28 -38 28 -47 0 -29 -55 -71 -115 -89 -76 -22 -124 -46 -154 -79 -32 -34
-68 -35 -77 -1 -18 71 34 183 103 226 74 46 169 42 215 -10z"/>
<path d="M5490 678 c0 -33 -3 -39 -12 -30 -19 19 -63 14 -83 -8 -39 -43 -10
-120 45 -120 14 0 31 5 38 12 9 9 12 9 12 0 0 -7 5 -12 10 -12 6 0 10 40 10
100 0 60 -4 100 -10 100 -5 0 -10 -19 -10 -42z m-2 -82 c4 -33 -13 -56 -42
-56 -31 0 -46 19 -46 57 0 26 5 36 23 42 30 12 61 -9 65 -43z"/>
<path d="M5555 711 c-6 -11 9 -23 19 -14 9 9 7 23 -3 23 -6 0 -12 -4 -16 -9z"/>
<path d="M5782 711 c4 -13 18 -16 19 -4 0 4 -5 9 -11 12 -7 2 -11 -2 -8 -8z"/>
<path d="M6110 620 c0 -60 4 -100 10 -100 6 0 10 40 10 100 0 60 -4 100 -10
100 -6 0 -10 -40 -10 -100z"/>
<path d="M6360 678 c0 -33 -3 -39 -12 -30 -19 19 -66 14 -88 -8 -56 -56 10
-147 81 -110 13 7 19 7 19 0 0 -5 5 -10 10 -10 6 0 10 40 10 100 0 60 -4 100
-10 100 -5 0 -10 -19 -10 -42z m-20 -48 c22 -22 25 -42 10 -71 -12 -22 -59
-26 -78 -7 -20 20 -14 65 10 82 29 20 34 20 58 -4z"/>
<path d="M6973 708 c-31 -15 -29 -30 2 -16 14 6 25 15 25 20 0 9 1 10 -27 -4z"/>
<path d="M7180 686 c0 -34 -1 -35 -35 -29 -26 4 -41 1 -55 -12 -26 -24 -27
-86 -2 -108 22 -20 63 -22 81 -4 11 10 14 10 18 0 14 -37 23 -2 23 87 0 82 -3
100 -15 100 -10 0 -15 -10 -15 -34z m-8 -60 c12 -17 9 -61 -4 -74 -7 -7 -21
-12 -33 -12 -29 0 -45 19 -45 51 0 47 58 71 82 35z"/>
<path d="M7250 710 c0 -5 5 -10 10 -10 6 0 10 5 10 10 0 6 -4 10 -10 10 -5 0
-10 -4 -10 -10z"/>
<path d="M4326 628 c-16 -46 -31 -89 -34 -95 -2 -7 0 -13 6 -13 5 0 13 11 16
25 6 22 12 25 51 25 39 0 47 -3 55 -25 5 -14 14 -25 20 -25 15 0 -55 185 -71
188 -10 2 -24 -25 -43 -80z m60 17 c20 -49 18 -55 -20 -55 l-35 0 16 45 c8 25
17 45 19 45 3 0 12 -16 20 -35z"/>
<path d="M5060 675 c0 -8 -7 -15 -15 -15 -8 0 -15 -4 -15 -10 0 -5 7 -10 15
-10 11 0 15 -12 15 -48 0 -26 5 -53 12 -60 15 -15 48 -16 48 -2 0 6 -9 10 -20
10 -17 0 -20 7 -20 50 0 43 3 50 20 50 11 0 20 5 20 10 0 6 -9 10 -20 10 -11
0 -20 7 -20 15 0 8 -4 15 -10 15 -5 0 -10 -7 -10 -15z"/>
<path d="M5860 676 c0 -8 -6 -17 -12 -20 -10 -5 -10 -7 0 -12 7 -3 12 -25 12
-53 0 -50 13 -71 42 -71 24 0 23 16 -2 23 -16 4 -20 14 -20 51 0 39 3 46 20
46 11 0 20 5 20 10 0 6 -9 10 -20 10 -11 0 -20 7 -20 15 0 8 -4 15 -10 15 -5
0 -10 -6 -10 -14z"/>
<path d="M7330 675 c0 -8 -7 -15 -15 -15 -8 0 -15 -4 -15 -10 0 -5 7 -10 15
-10 11 0 15 -12 15 -48 0 -51 12 -72 42 -72 24 0 23 16 -2 23 -16 4 -20 14
-20 51 0 39 3 46 20 46 11 0 20 5 20 10 0 6 -9 10 -20 10 -11 0 -20 7 -20 15
0 8 -4 15 -10 15 -5 0 -10 -7 -10 -15z"/>
<path d="M4578 650 c-34 -21 -31 -98 6 -122 21 -14 63 -8 81 12 10 11 13 20 7
20 -6 0 -14 -4 -17 -10 -3 -5 -19 -10 -35 -10 -52 0 -67 75 -19 100 16 9 26 8
46 -5 29 -20 41 -14 18 9 -18 18 -61 21 -87 6z"/>
<path d="M4738 650 c-34 -21 -31 -98 6 -122 20 -14 63 -8 79 10 57 64 -11 155
-85 112z m57 -6 c24 -9 36 -49 25 -79 -7 -19 -17 -25 -39 -25 -49 0 -67 54
-31 90 22 22 22 22 45 14z"/>
<path d="M4880 590 c0 -40 4 -70 10 -70 6 0 10 20 10 45 0 56 29 92 60 75 16
-9 20 -21 20 -65 0 -30 5 -55 10 -55 14 0 12 114 -2 128 -7 7 -24 12 -38 12
-14 0 -31 -5 -38 -12 -9 -9 -12 -9 -12 0 0 7 -4 12 -10 12 -6 0 -10 -30 -10
-70z"/>
<path d="M5165 644 c-22 -23 -12 -29 18 -10 29 19 57 12 57 -15 0 -15 -7 -19
-34 -19 -37 0 -60 -19 -54 -46 5 -29 34 -40 68 -27 16 6 30 7 30 2 0 -5 5 -9
10 -9 16 0 12 93 -6 118 -18 26 -65 30 -89 6z m76 -76 c-10 -29 -58 -37 -68
-13 -7 21 12 35 49 35 24 0 26 -3 19 -22z"/>
<path d="M5560 590 c0 -40 4 -70 10 -70 6 0 10 30 10 70 0 40 -4 70 -10 70 -6
0 -10 -30 -10 -70z"/>
<path d="M5636 644 c-18 -18 -20 -32 -6 -54 5 -8 5 -19 1 -25 -5 -5 -8 -17 -8
-25 -1 -8 -4 -22 -7 -31 -17 -40 74 -68 108 -33 19 18 19 20 6 43 -5 11 -26
21 -50 25 -45 7 -46 26 -1 26 33 0 51 16 51 47 0 13 5 23 10 23 6 0 10 5 10
10 0 17 -97 12 -114 -6z m62 -6 c19 -19 14 -46 -8 -53 -40 -13 -67 34 -32 54
22 13 26 13 40 -1z m12 -123 c10 -12 10 -18 0 -30 -16 -19 -40 -19 -65 -1 -16
12 -17 16 -6 30 17 20 55 21 71 1z"/>
<path d="M5780 590 c0 -40 4 -70 10 -70 6 0 10 30 10 70 0 40 -4 70 -10 70 -6
0 -10 -30 -10 -70z"/>
<path d="M5970 645 c-18 -22 -5 -31 15 -11 19 19 21 19 46 6 33 -18 23 -39
-22 -42 -49 -3 -71 -27 -53 -55 13 -22 60 -29 80 -12 10 8 14 8 14 0 0 -6 5
-11 10 -11 17 0 12 107 -6 124 -20 20 -68 21 -84 1z m80 -61 c0 -20 -24 -44
-45 -44 -29 0 -41 16 -25 35 12 14 70 22 70 9z"/>
<path d="M6437 642 c-23 -25 -22 -85 1 -105 24 -22 66 -22 87 -1 19 20 12 32
-9 15 -24 -20 -70 -10 -74 17 -3 21 0 22 52 22 l56 0 -11 27 c-6 15 -16 31
-22 35 -22 14 -64 8 -80 -10z m64 -2 c34 -19 23 -40 -21 -40 -43 0 -55 20 -22
39 21 13 20 13 43 1z"/>
<path d="M6670 640 c-43 -43 -11 -120 49 -120 29 0 60 25 46 38 -4 4 -10 1
-12 -5 -6 -16 -55 -17 -71 -1 -7 7 -12 24 -12 39 0 46 58 71 82 35 4 -6 10 -7
14 -3 13 12 -18 37 -47 37 -16 0 -38 -9 -49 -20z"/>
<path d="M6810 590 c0 -54 3 -70 15 -70 10 0 15 15 17 58 3 50 6 57 26 60 12
2 22 8 22 13 0 13 -24 11 -39 -3 -11 -10 -14 -10 -18 0 -12 32 -23 5 -23 -58z"/>
<path d="M6927 642 c-38 -42 -7 -122 46 -122 27 0 65 25 54 36 -4 4 -13 2 -19
-4 -25 -25 -78 -8 -78 25 0 9 17 13 56 13 53 0 55 1 49 23 -14 47 -77 64 -108
29z m71 -8 c34 -23 27 -34 -23 -34 -48 0 -62 19 -27 39 23 14 24 14 50 -5z"/>
<path d="M7250 590 c0 -40 4 -70 10 -70 6 0 10 30 10 70 0 40 -4 70 -10 70 -6
0 -10 -30 -10 -70z"/>
<path d="M7437 642 c-23 -25 -22 -85 1 -105 43 -39 112 -5 112 53 0 59 -76 94
-113 52z m71 -8 c24 -17 30 -62 10 -82 -17 -17 -65 -15 -72 4 -12 31 -6 73 12
83 23 14 24 14 50 -5z"/>
<path d="M4410 318 c0 -33 -3 -39 -12 -30 -31 31 -108 -2 -108 -47 0 -61 45
-95 96 -72 15 6 24 7 24 1 0 -6 5 -10 10 -10 6 0 10 40 10 100 0 60 -4 100
-10 100 -5 0 -10 -19 -10 -42z m-20 -48 c36 -36 18 -90 -30 -90 -30 0 -50 22
-50 54 0 18 34 56 50 56 6 0 19 -9 30 -20z"/>
<path d="M4485 284 c-22 -23 -12 -29 18 -10 29 19 57 12 57 -15 0 -15 -7 -19
-34 -19 -37 0 -60 -19 -54 -46 5 -29 34 -40 67 -27 22 8 31 8 35 -1 2 -6 5 16
5 50 1 34 -4 65 -11 72 -17 17 -64 15 -83 -4z m73 -76 c-2 -18 -11 -24 -35
-26 -27 -3 -33 0 -33 16 0 26 8 32 42 32 25 0 29 -4 26 -22z"/>
<path d="M4712 291 c-25 -16 -10 -53 28 -65 46 -15 54 -46 11 -46 -16 0 -33 5
-36 10 -3 6 -11 10 -17 10 -6 0 -3 -9 7 -20 20 -22 64 -27 83 -8 24 24 13 49
-28 65 -41 16 -52 39 -25 50 9 3 25 -3 37 -13 20 -19 20 -19 17 1 -5 22 -53
32 -77 16z"/>
<path d="M4842 239 c4 -74 19 -90 68 -72 16 6 30 7 30 2 0 -5 5 -9 10 -9 6 0
10 30 10 70 0 40 -4 70 -10 70 -5 0 -10 -19 -10 -43 0 -54 -18 -80 -51 -75
-22 3 -24 8 -27 61 -2 31 -7 57 -13 57 -6 0 -9 -25 -7 -61z"/>
<path d="M5010 285 c-19 -23 -5 -29 24 -10 21 14 29 15 41 5 25 -21 18 -40
-14 -40 -47 0 -61 -10 -61 -41 0 -23 6 -30 27 -35 14 -4 34 -2 45 5 11 7 18 7
18 1 0 -5 5 -10 10 -10 14 0 12 114 -2 128 -17 17 -73 15 -88 -3z m80 -68 c0
-20 -22 -37 -47 -37 -22 0 -33 27 -16 43 12 13 63 7 63 -6z"/>
<path d="M5239 279 c-17 -17 -20 -29 -15 -58 6 -41 28 -61 67 -61 28 0 57 25
44 38 -4 4 -10 1 -12 -5 -6 -16 -55 -17 -71 -1 -26 26 -13 38 43 38 60 0 67 9
39 48 -20 29 -67 29 -95 1z m75 -5 c26 -25 19 -34 -29 -34 -50 0 -57 11 -23
34 28 20 33 20 52 0z"/>
<path d="M5390 233 c0 -42 4 -73 10 -73 6 0 10 25 10 55 0 42 4 56 18 64 34
18 52 -5 52 -64 0 -30 5 -55 10 -55 6 0 10 22 10 49 0 53 21 87 47 77 8 -3 17
-6 19 -6 2 0 4 -27 4 -60 0 -47 3 -60 15 -60 11 0 15 11 15 39 0 81 -28 114
-81 94 -17 -7 -31 -7 -35 -2 -7 13 -61 11 -70 -2 -4 -8 -9 -7 -15 2 -5 9 -9
-14 -9 -58z"/>
<path d="M5630 200 c0 -82 3 -100 15 -100 11 0 15 11 15 42 0 33 3 39 12 30
18 -18 63 -14 81 6 23 25 22 85 -1 105 -21 19 -54 22 -83 7 -13 -7 -19 -7 -19
0 0 5 -4 10 -10 10 -6 0 -10 -40 -10 -100z m118 36 c2 -15 -2 -34 -9 -42 -14
-17 -51 -18 -67 -2 -13 13 -16 57 -4 74 22 34 75 14 80 -30z"/>
<path d="M5810 230 c0 -81 18 -95 22 -17 2 43 7 54 26 62 12 5 22 13 22 17 0
12 -25 9 -38 -4 -9 -9 -12 -9 -12 0 0 7 -4 12 -10 12 -6 0 -10 -30 -10 -70z"/>
<path d="M5926 284 c-27 -27 -31 -63 -9 -92 26 -35 72 -41 98 -12 10 11 13 20
7 20 -6 0 -14 -4 -17 -10 -11 -18 -64 -11 -74 9 -14 26 -5 31 51 31 40 0 48 3
48 18 0 44 -72 69 -104 36z m65 -4 c36 -20 23 -40 -26 -40 -50 0 -57 11 -23
34 27 19 24 19 49 6z"/>
<path d="M6074 286 c-11 -28 1 -48 36 -60 45 -14 54 -46 13 -46 -16 0 -34 5
-41 12 -6 6 -14 9 -17 6 -11 -11 27 -38 54 -38 62 0 70 54 11 77 -41 16 -52
39 -25 50 9 3 25 -3 37 -13 20 -19 20 -19 17 1 -5 26 -76 35 -85 11z"/>
<path d="M6220 285 c-19 -23 -3 -31 21 -10 22 21 51 12 57 -19 3 -13 -5 -16
-37 -16 -47 0 -69 -26 -51 -60 12 -23 59 -27 78 -8 9 9 12 9 12 0 0 -7 5 -12
10 -12 13 0 13 96 0 121 -13 23 -72 26 -90 4z m80 -68 c0 -20 -21 -37 -46 -37
-29 0 -39 16 -24 35 15 19 70 20 70 2z"/>
<path d="M6357 184 c-8 -8 1 -24 14 -24 5 0 9 7 9 15 0 15 -12 20 -23 9z"/>
</g>
</svg>
