<svg id="Camada_1" data-name="Camada 1" xmlns="http://www.w3.org/2000/svg" viewBox="51.3 213.53 497.38 172.93">
  <defs>
    <style>
      .cls-1 {
        fill-rule: evenodd;
      }

      .cls-1, .cls-2 {
        fill: #125e5c;
      }

      .cls-3 {
        fill: #3acc90;
      }
    </style>
  </defs>
  <path class="cls-3" d="M200.76,281.98c-1.71-2.45-4.65-3.91-7.86-3.91h-33.78c-3.38,0-6.58,1.64-8.55,4.39l-7.8,10.88c-1.59,2.21-4.16,3.53-6.88,3.53h-4.95c-.24,0-.43-.19-.43-.43v-11.5c0-4.71-1.92-9.32-5.26-12.65l-55.98-55.69c-3.58-3.57-9.24-4.07-13.44-1.18-2.82,1.93-4.5,5.27-4.5,8.93v59.85c0,5.4,2.2,10.67,6.02,14.47l40.21,39.9c2.55,2.54,6.7,2.52,9.23-.03,2.54-2.55,2.52-6.7-.03-9.24l-40.21-39.9c-1.38-1.36-2.16-3.26-2.16-5.2v-53.01c0-.25.17-.35.26-.4.1-.04.29-.08.47.09l50.92,50.66c.9.89,1.41,2.13,1.41,3.39v90.6c0,4.53,2.68,8.62,6.66,10.18,1.26.49,2.57.73,3.86.73,3.32,0,6.53-1.57,8.55-4.38l64.19-89.37c2.29-3.18,2.31-7.48.05-10.72ZM185.27,291.81l-53.98,75.16c-.15.21-.35.2-.48.16-.14-.04-.3-.15-.3-.41v-56.36c0-.24.19-.43.43-.43h4.95c6.92,0,13.46-3.36,17.49-8.98l6.41-8.94c.39-.55,1.03-.88,1.71-.88h23.42c.23,0,.34.15.38.23.04.09.1.26-.03.45Z"/>
  <g>
    <path class="cls-1" d="M320.08,287.77c0-5.16-4.2-9.36-9.36-9.36s-9.36,4.2-9.36,9.36v76.27c0,5.16,4.2,9.36,9.36,9.36s9.36-4.2,9.36-9.36v-76.28Z"/>
    <path class="cls-1" d="M434.56,319.61c0-8.21,2.64-13.9,8.08-17.4,2.76-1.78,5.89-2.76,8.32-3.42.84-.23,1.77-.45,2.75-.69,3.63-.87,8.14-1.94,10.37-4.09,1.46-1.41,2.14-3.34,2.14-6.07,0-5.16-4.2-9.36-9.36-9.36-22.62,0-41.03,18.41-41.03,41.03v44.26c0,5.16,4.2,9.36,9.36,9.36s9.36-4.2,9.36-9.36v-44.26Z"/>
    <path class="cls-1" d="M547.75,314.79c3.34-10.41-3.07-20.69-9.57-26.33-7.57-6.57-16.62-9.99-26.32-9.99-.96,0-1.92.03-2.89.1-12.49.86-24.73,7.15-33.58,17.26-6.83,7.81-10.88,16.99-11.7,26.56-.86,9.96,1.76,20.14,7.57,29.44,8.17,12.44,21.09,20.03,36.38,21.35,6.28.54,12.46-.06,17.89-1.74,2.9-.9,8.21-2.96,11.12-6.69,1.68-2.15,2.1-5.05,1.14-7.77-.92-2.57-2.86-4.36-5.33-4.9-3.05-.67-6.59.72-10.01,2.06-1.93.76-3.93,1.54-5.85,1.96-3.54.77-13.28,1.59-15.79-3.75-1.1-2.34-1.17-4.65-.2-6.86,3.01-6.83,15.36-10.55,21.29-12.34l1.25-.38c6.46-1.96,13.13-3.98,18.14-8.22,3.1-2.62,5.22-5.81,6.48-9.77ZM528.79,313.02c-2.66,4.05-9.69,5.94-15.34,7.45-1.29.35-2.48.66-3.45.97-9.08,2.88-15.19,6.72-19.81,12.47l-.17.19h0c-1.06,1.07-2.29,1.64-3.47,1.64-.32,0-.63-.04-.94-.12-.82-.22-2.29-.95-2.92-3.35-1.74-9.29,1.35-19.26,8.25-26.84,6.8-7.47,15.88-10.97,24.89-9.62,5.5.83,13.89,4.62,14.46,11.66.15,1.91-.36,3.83-1.5,5.56Z"/>
    <path class="cls-1" d="M241.14,332.44c0,22.62,18.41,41.03,41.03,41.03,5.16,0,9.36-4.2,9.36-9.36,0-2.73-.68-4.66-2.14-6.08-2.23-2.15-6.75-3.23-10.38-4.1-.97-.23-1.9-.45-2.74-.68-2.43-.66-5.57-1.65-8.32-3.42-5.44-3.5-8.08-9.19-8.08-17.4v-44.73c0-5.16-4.2-9.36-9.36-9.36s-9.36,4.2-9.36,9.36v44.73Z"/>
    <path class="cls-2" d="M404.52,283.05c-1.28-2.3-3.39-3.89-5.95-4.49-4.53-1.06-9.29,1.78-10.83,6.45l-16.27,49.28c-.63,1.92-2.27,2.61-3.58,2.61h0c-1.32,0-2.95-.68-3.58-2.61l-16.44-49.68c-.81-2.46-2.63-4.47-4.98-5.52-2.39-1.07-5.03-1.06-7.44.01-4.25,1.9-6.37,7.04-4.83,11.71l23.99,72.47c2.04,6.15,7.26,10.13,13.3,10.13h0c6.04,0,11.26-3.99,13.29-10.14l24.03-72.78c.81-2.46.56-5.18-.7-7.44Z"/>
  </g>
</svg>