<svg xmlns="http://www.w3.org/2000/svg" xmlns:xlink="http://www.w3.org/1999/xlink" width="147.863" height="51.404" viewBox="0 0 147.863 51.404">
  <defs>
    <clipPath id="clip-path">
      <rect id="Retângulo_1422" data-name="Retângulo 1422" width="147.863" height="51.404" fill="none"/>
    </clipPath>
  </defs>
  <g id="logo" clip-path="url(#clip-path)">
    <path id="Caminho_954" data-name="Caminho 954" d="M44.427,20.346a2.831,2.831,0,0,0-2.338-1.162H32.046a3.137,3.137,0,0,0-2.543,1.3l-2.319,3.234a2.521,2.521,0,0,1-2.045,1.049H23.668a.128.128,0,0,1-.128-.128V21.226a5.34,5.34,0,0,0-1.563-3.76L5.335.908a3.142,3.142,0,0,0-4-.351A3.191,3.191,0,0,0,0,3.211V21.006a6.1,6.1,0,0,0,1.791,4.3L13.745,37.172a1.941,1.941,0,0,0,2.735-2.757L4.525,22.552a2.193,2.193,0,0,1-.643-1.546V5.247a.122.122,0,0,1,.078-.118.12.12,0,0,1,.139.027L19.238,20.218a1.434,1.434,0,0,1,.42,1.008V48.162a3.23,3.23,0,0,0,1.981,3.026A3.136,3.136,0,0,0,25.327,50.1l19.086-26.57a2.76,2.76,0,0,0,.015-3.186m-4.606,2.922L23.771,45.612a.128.128,0,0,1-.231-.074V28.782a.128.128,0,0,1,.128-.127H25.14a6.416,6.416,0,0,0,5.2-2.669l1.906-2.659a.627.627,0,0,1,.508-.261h6.964a.123.123,0,0,1,.114.069.124.124,0,0,1-.01.133" transform="translate(0 0)" fill="#3acc90"/>
    <path id="Caminho_955" data-name="Caminho 955" d="M124.708,33.688a2.783,2.783,0,0,0-5.567,0V56.365a2.783,2.783,0,0,0,5.567,0Z" transform="translate(-44.805 -11.622)" fill="#eeffef" fill-rule="evenodd"/>
    <path id="Caminho_956" data-name="Caminho 956" d="M179.258,43.185c0-2.44.786-4.132,2.4-5.172A8.834,8.834,0,0,1,184.135,37c.25-.067.527-.134.818-.2a7.292,7.292,0,0,0,3.083-1.217,2.347,2.347,0,0,0,.637-1.806,2.787,2.787,0,0,0-2.783-2.783,12.212,12.212,0,0,0-12.2,12.2v13.16a2.783,2.783,0,1,0,5.566,0Z" transform="translate(-65.319 -11.653)" fill="#eeffef" fill-rule="evenodd"/>
    <path id="Caminho_957" data-name="Caminho 957" d="M221.457,41.728c.993-3.1-.912-6.153-2.845-7.829a11.772,11.772,0,0,0-7.826-2.972q-.428,0-.86.03a14.831,14.831,0,0,0-9.983,5.132,13.779,13.779,0,0,0-3.479,7.9,14.378,14.378,0,0,0,18.384,14.584,6.977,6.977,0,0,0,3.306-1.989,2.414,2.414,0,0,0,.338-2.309,2.179,2.179,0,0,0-1.585-1.457,5.552,5.552,0,0,0-2.977.613,11.764,11.764,0,0,1-1.741.583c-1.053.229-3.948.472-4.694-1.114a2.367,2.367,0,0,1-.059-2.04c.894-2.03,4.565-3.137,6.33-3.669l.371-.112a14.827,14.827,0,0,0,5.394-2.444,6.148,6.148,0,0,0,1.927-2.9m-5.637-.525c-.789,1.2-2.881,1.764-4.561,2.216-.384.1-.737.2-1.026.289a11.51,11.51,0,0,0-5.888,3.707l-.049.055a1.482,1.482,0,0,1-1.032.489,1.062,1.062,0,0,1-.28-.037,1.267,1.267,0,0,1-.87-1,9.4,9.4,0,0,1,2.451-7.98,8.314,8.314,0,0,1,7.4-2.861c1.635.246,4.129,1.373,4.3,3.468a2.612,2.612,0,0,1-.445,1.652" transform="translate(-73.865 -11.631)" fill="#eeffef" fill-rule="evenodd"/>
    <path id="Caminho_958" data-name="Caminho 958" d="M90.447,46.958a12.213,12.213,0,0,0,12.2,12.2,2.786,2.786,0,0,0,2.783-2.783,2.35,2.35,0,0,0-.638-1.807,7.294,7.294,0,0,0-3.087-1.218c-.29-.069-.565-.135-.814-.2a8.871,8.871,0,0,1-2.474-1.016c-1.617-1.041-2.4-2.733-2.4-5.172v-13.3a2.783,2.783,0,0,0-5.566,0Z" transform="translate(-34.014 -11.611)" fill="#eeffef" fill-rule="evenodd"/>
    <path id="Caminho_959" data-name="Caminho 959" d="M154.962,32.267a2.7,2.7,0,0,0-1.77-1.335,2.8,2.8,0,0,0-3.22,1.917L145.134,47.5a1.12,1.12,0,0,1-2.131,0l-4.889-14.77a2.745,2.745,0,0,0-1.481-1.642,2.68,2.68,0,0,0-2.211,0,2.836,2.836,0,0,0-1.436,3.48l7.133,21.545a4.188,4.188,0,0,0,3.953,3.012h0a4.188,4.188,0,0,0,3.952-3.016l7.145-21.637a2.774,2.774,0,0,0-.208-2.212" transform="translate(-49.955 -11.604)" fill="#eeffef"/>
  </g>
</svg>
