<svg width="17" height="17" viewBox="0 0 17 17" fill="none" xmlns="http://www.w3.org/2000/svg">
<path d="M1 5.16641L4.3075 1.90514C4.44704 1.76673 4.61299 1.65691 4.79577 1.58203C4.97856 1.50715 5.17457 1.46867 5.3725 1.46883H11.6275C11.8254 1.46867 12.0214 1.50715 12.2042 1.58203C12.387 1.65691 12.553 1.76673 12.6925 1.90514L16 5.16641" stroke="#084148" stroke-width="1.5" stroke-linecap="round" stroke-linejoin="round"/>
<path d="M2.5 8.86399V14.7801C2.5 15.1724 2.65804 15.5486 2.93934 15.826C3.22064 16.1033 3.60218 16.2592 4 16.2592H13C13.3978 16.2592 13.7794 16.1033 14.0607 15.826C14.342 15.5486 14.5 15.1724 14.5 14.7801V8.86399" stroke="#084148" stroke-width="1.5" stroke-linecap="round" stroke-linejoin="round"/>
<path d="M10.75 16.2592V13.3011C10.75 12.9088 10.592 12.5326 10.3107 12.2553C10.0294 11.9779 9.64782 11.8221 9.25 11.8221H7.75C7.35218 11.8221 6.97064 11.9779 6.68934 12.2553C6.40804 12.5326 6.25 12.9088 6.25 13.3011V16.2592" stroke="#084148" stroke-width="1.5" stroke-linecap="round" stroke-linejoin="round"/>
<path d="M1 5.16641H16" stroke="#084148" stroke-width="1.5" stroke-linecap="round" stroke-linejoin="round"/>
<path d="M16 5.16641V7.38496C16 7.77722 15.842 8.15342 15.5607 8.43079C15.2794 8.70816 14.8978 8.86399 14.5 8.86399C14.0618 8.84021 13.6433 8.6767 13.3075 8.39809C13.218 8.33433 13.1104 8.30001 13 8.30001C12.8896 8.30001 12.782 8.33433 12.6925 8.39809C12.3567 8.6767 11.9382 8.84021 11.5 8.86399C11.0618 8.84021 10.6433 8.6767 10.3075 8.39809C10.218 8.33433 10.1104 8.30001 10 8.30001C9.88959 8.30001 9.78199 8.33433 9.6925 8.39809C9.3567 8.6767 8.9382 8.84021 8.5 8.86399C8.0618 8.84021 7.6433 8.6767 7.3075 8.39809C7.21801 8.33433 7.11041 8.30001 7 8.30001C6.88959 8.30001 6.78199 8.33433 6.6925 8.39809C6.3567 8.6767 5.9382 8.84021 5.5 8.86399C5.0618 8.84021 4.6433 8.6767 4.3075 8.39809C4.21801 8.33433 4.11041 8.30001 4 8.30001C3.88959 8.30001 3.78199 8.33433 3.6925 8.39809C3.3567 8.6767 2.9382 8.84021 2.5 8.86399C2.10218 8.86399 1.72064 8.70816 1.43934 8.43079C1.15804 8.15342 1 7.77722 1 7.38496V5.16641" stroke="#084148" stroke-width="1.5" stroke-linecap="round" stroke-linejoin="round"/>
</svg>
