<svg width="54" height="62" viewBox="0 0 54 62" fill="none" xmlns="http://www.w3.org/2000/svg">
<path d="M53.4029 24.5424C53.081 24.0996 52.6576 23.7411 52.1685 23.497C51.6794 23.253 51.139 23.1306 50.5928 23.1402H38.5193C37.9223 23.1409 37.3339 23.2839 36.8027 23.5573C36.2715 23.8308 35.8126 24.2269 35.4638 24.7131L32.6774 28.613C32.3972 29.0043 32.0283 29.3232 31.6011 29.5433C31.174 29.7634 30.7008 29.8785 30.2205 29.8791H28.4505C28.4102 29.8785 28.3716 29.8622 28.343 29.8335C28.3145 29.8049 28.2982 29.7662 28.2976 29.7257V25.6033C28.294 23.9013 27.6189 22.27 26.42 21.066L6.41373 1.09998C5.78896 0.477759 4.96721 0.0940547 4.09046 0.0151556C3.21371 -0.0637434 2.33703 0.167119 1.61189 0.667856C1.10325 1.03106 0.690675 1.51336 0.409984 2.07288C0.129294 2.6324 -0.0110204 3.25221 0.0012264 3.8785V25.3397C0.0059786 27.2861 0.780435 29.1511 2.15452 30.5251L16.5234 44.8326C16.7389 45.0584 16.9971 45.2386 17.2831 45.3627C17.569 45.4868 17.8768 45.5522 18.1883 45.5551C18.4998 45.5579 18.8088 45.4982 19.0969 45.3794C19.3851 45.2606 19.6466 45.0851 19.8661 44.8633C20.0856 44.6414 20.2586 44.3778 20.375 44.0878C20.4913 43.7978 20.5486 43.4874 20.5435 43.1749C20.5385 42.8623 20.4711 42.5539 20.3453 42.2679C20.2196 41.9819 20.0381 41.7241 19.8115 41.5096L5.44044 27.2021C4.94689 26.7078 4.66889 26.0372 4.66741 25.3375V6.32429C4.66758 6.29408 4.67664 6.26459 4.69345 6.23953C4.71027 6.21446 4.73408 6.19493 4.76191 6.1834C4.78973 6.17186 4.82034 6.16882 4.84988 6.17467C4.87942 6.18052 4.90658 6.19498 4.92796 6.21626L23.1233 24.3804C23.4447 24.7032 23.6258 25.1405 23.6272 25.5968V58.09C23.6151 58.8674 23.8355 59.6307 24.26 60.2811C24.6845 60.9316 25.2936 61.4395 26.0087 61.7392C26.7877 62.0455 27.6462 62.0831 28.4489 61.8461C29.2516 61.609 29.9529 61.1108 30.4423 60.4299L53.3835 28.3861C53.7818 27.8261 53.9974 27.1561 54.0005 26.4681C54.0035 25.7801 53.794 25.1081 53.4007 24.5446M47.8646 28.0685L28.5733 55.0154C28.5538 55.0408 28.5271 55.0595 28.4967 55.069C28.4664 55.0786 28.4338 55.0785 28.4034 55.0688C28.3731 55.0591 28.3465 55.0403 28.3271 55.0149C28.3078 54.9895 28.2968 54.9588 28.2955 54.9269V34.7167C28.2982 34.6779 28.3155 34.6416 28.3439 34.6151C28.3723 34.5886 28.4096 34.574 28.4484 34.5741H30.2184C31.4389 34.5716 32.6414 34.2785 33.727 33.7189C34.8126 33.1592 35.7503 32.349 36.4629 31.3548L38.7605 28.1376C38.8298 28.0403 38.9213 27.961 39.0272 27.9061C39.1332 27.8513 39.2506 27.8225 39.3699 27.8222H47.7397C47.7681 27.8219 47.796 27.8295 47.8203 27.8443C47.8447 27.859 47.8644 27.8802 47.8774 27.9055C47.8903 27.9309 47.896 27.9594 47.8938 27.9878C47.8915 28.0162 47.8814 28.0434 47.8646 28.0663" fill="#3ACC90"/>
</svg>
