<svg width="18" height="19" viewBox="0 0 18 19" fill="none" xmlns="http://www.w3.org/2000/svg">
<path d="M8.20005 11.955H9.80005C10.2244 11.955 10.6314 11.7881 10.9314 11.491C11.2315 11.1938 11.4 10.7909 11.4 10.3707C11.4 9.95048 11.2315 9.54751 10.9314 9.25039C10.6314 8.95327 10.2244 8.78635 9.80005 8.78635H7.40005C6.92005 8.78635 6.52005 8.94479 6.28005 9.26165L1.80005 13.5393" stroke="#EEFFEF" stroke-width="1.5" stroke-linecap="round" stroke-linejoin="round"/>
<path d="M5 16.7079L6.28 15.5989C6.52 15.282 6.92 15.1236 7.4 15.1236H10.6C11.48 15.1236 12.28 14.8068 12.84 14.173L16.52 10.6875C16.8287 10.3987 17.0089 10.0002 17.0209 9.57975C17.0329 9.15933 16.8757 8.75141 16.584 8.44572C16.2923 8.14004 15.8898 7.96163 15.4653 7.94974C15.0407 7.93786 14.6287 8.09347 14.32 8.38235L10.96 11.4718" stroke="#EEFFEF" stroke-width="1.5" stroke-linecap="round" stroke-linejoin="round"/>
<path d="M1 12.7471L5.8 17.5001" stroke="#EEFFEF" stroke-width="1.5" stroke-linecap="round" stroke-linejoin="round"/>
<path d="M12.2001 9.49929C13.4814 9.49929 14.5201 8.47077 14.5201 7.20203C14.5201 5.93329 13.4814 4.90477 12.2001 4.90477C10.9188 4.90477 9.88013 5.93329 9.88013 7.20203C9.88013 8.47077 10.9188 9.49929 12.2001 9.49929Z" stroke="#EEFFEF" stroke-width="1.5" stroke-linecap="round" stroke-linejoin="round"/>
<path d="M4.20005 6.40988C5.52553 6.40988 6.60005 5.3459 6.60005 4.0334C6.60005 2.72091 5.52553 1.65693 4.20005 1.65693C2.87457 1.65693 1.80005 2.72091 1.80005 4.0334C1.80005 5.3459 2.87457 6.40988 4.20005 6.40988Z" stroke="#EEFFEF" stroke-width="1.5" stroke-linecap="round" stroke-linejoin="round"/>
</svg>
