<svg width="27" height="27" viewBox="0 0 27 27" fill="none" xmlns="http://www.w3.org/2000/svg">
<path d="M12.2351 17.25H14.7317C15.3939 17.25 16.0289 16.9866 16.4971 16.5178C16.9653 16.0489 17.2284 15.413 17.2284 14.75C17.2284 14.087 16.9653 13.4511 16.4971 12.9822C16.0289 12.5134 15.3939 12.25 14.7317 12.25H10.9868C10.2378 12.25 9.61362 12.5 9.23913 13L2.24854 19.75" stroke="#0B2522" stroke-width="1.5" stroke-linecap="round" stroke-linejoin="round"/>
<path d="M7.2417 24.75L9.23901 23C9.61351 22.5 10.2377 22.25 10.9867 22.25H15.9799C17.3531 22.25 18.6014 21.75 19.4752 20.75L25.2175 15.25C25.6992 14.7942 25.9804 14.1654 25.9991 13.502C26.0178 12.8386 25.7726 12.1949 25.3174 11.7125C24.8621 11.2301 24.2342 10.9486 23.5717 10.9299C22.9092 10.9111 22.2663 11.1567 21.7846 11.6125L16.5417 16.4875" stroke="#0B2522" stroke-width="1.5" stroke-linecap="round" stroke-linejoin="round"/>
<path d="M1 18.5L8.48992 26" stroke="#0B2522" stroke-width="1.5" stroke-linecap="round" stroke-linejoin="round"/>
<path d="M18.4766 13.375C20.4759 13.375 22.0967 11.752 22.0967 9.75C22.0967 7.74797 20.4759 6.125 18.4766 6.125C16.4772 6.125 14.8564 7.74797 14.8564 9.75C14.8564 11.752 16.4772 13.375 18.4766 13.375Z" stroke="#0B2522" stroke-width="1.5" stroke-linecap="round" stroke-linejoin="round"/>
<path d="M5.9935 8.5C8.06178 8.5 9.73846 6.82107 9.73846 4.75C9.73846 2.67893 8.06178 1 5.9935 1C3.92521 1 2.24854 2.67893 2.24854 4.75C2.24854 6.82107 3.92521 8.5 5.9935 8.5Z" stroke="#0B2522" stroke-width="1.5" stroke-linecap="round" stroke-linejoin="round"/>
</svg>
