<svg width="60" height="60" viewBox="0 0 60 60" fill="none" xmlns="http://www.w3.org/2000/svg">
<path d="M8.04003 20.9161C7.64473 19.1354 7.70543 17.2838 8.2165 15.5328C8.72757 13.7819 9.67247 12.1883 10.9636 10.8999C12.2547 9.6115 13.8502 8.66993 15.6023 8.16253C17.3543 7.65512 19.206 7.5983 20.9859 7.99733C21.9655 6.46523 23.315 5.20439 24.9101 4.33102C26.5052 3.45766 28.2944 2.99988 30.1129 2.99988C31.9315 2.99988 33.7207 3.45766 35.3158 4.33102C36.9109 5.20439 38.2604 6.46523 39.24 7.99733C41.0226 7.59656 42.8775 7.65313 44.6323 8.16177C46.3871 8.6704 47.9848 9.61459 49.2767 10.9065C50.5686 12.1984 51.5128 13.7961 52.0214 15.5509C52.5301 17.3057 52.5866 19.1606 52.1859 20.9432C53.718 21.9228 54.9788 23.2723 55.8522 24.8674C56.7255 26.4625 57.1833 28.2517 57.1833 30.0702C57.1833 31.8888 56.7255 33.678 55.8522 35.2731C54.9788 36.8682 53.718 38.2177 52.1859 39.1973C52.5849 40.9772 52.5281 42.8289 52.0207 44.5809C51.5133 46.333 50.5717 47.9285 49.2833 49.2196C47.9949 50.5107 46.4013 51.4556 44.6504 51.9667C42.8994 52.4778 41.0478 52.5385 39.2671 52.1432C38.2888 53.6811 36.9382 54.9474 35.3404 55.8247C33.7426 56.7019 31.9493 57.1619 30.1265 57.1619C28.3037 57.1619 26.5104 56.7019 24.9126 55.8247C23.3148 54.9474 21.9642 53.6811 20.9859 52.1432C19.206 52.5422 17.3543 52.4854 15.6023 51.978C13.8502 51.4706 12.2547 50.529 10.9636 49.2406C9.67247 47.9522 8.72757 46.3586 8.2165 44.6077C7.70543 42.8567 7.64473 41.0051 8.04003 39.2244C6.49617 38.2474 5.22449 36.8957 4.34329 35.2952C3.46209 33.6947 3 31.8973 3 30.0702C3 28.2432 3.46209 26.4458 4.34329 24.8453C5.22449 23.2448 6.49617 21.8931 8.04003 20.9161Z" stroke="#EEFFEF" stroke-width="5" stroke-linecap="round" stroke-linejoin="round"/>
<path d="M40.9465 19.2369H24.6965C23.2599 19.2369 21.8821 19.8076 20.8663 20.8234C19.8505 21.8393 19.2798 23.217 19.2798 24.6536C19.2798 26.0902 19.8505 27.4679 20.8663 28.4838C21.8821 29.4996 23.2599 30.0703 24.6965 30.0703H35.5298C36.9664 30.0703 38.3441 30.641 39.3599 31.6568C40.3758 32.6726 40.9465 34.0503 40.9465 35.4869C40.9465 36.9235 40.3758 38.3013 39.3599 39.3171C38.3441 40.3329 36.9664 40.9036 35.5298 40.9036H19.2798" stroke="#EEFFEF" stroke-width="5" stroke-linecap="round" stroke-linejoin="round"/>
<path d="M30.1128 46.3202V13.8202" stroke="#EEFFEF" stroke-width="5" stroke-linecap="round" stroke-linejoin="round"/>
</svg>
